<mxfile host="Electron" modified="2023-08-21T10:48:15.988Z" agent="5.0 (Windows NT 10.0; Win64; x64) AppleWebKit/537.36 (KHTML, like Gecko) draw.io/20.3.0 Chrome/104.0.5112.114 Electron/20.1.3 Safari/537.36" etag="0vztHVw10bFOd_tKWGEy" compressed="false" version="20.3.0" type="device">
  <diagram name="LZ009A" id="niRYvdn6nw0L8PsznXqE">
    <mxGraphModel dx="1422" dy="977" grid="1" gridSize="2" guides="1" tooltips="1" connect="1" arrows="1" fold="1" page="1" pageScale="1" pageWidth="1169" pageHeight="827" math="0" shadow="0">
      <root>
        <mxCell id="qn_K0pIXvatUjS5RkW0a-0" />
        <mxCell id="qn_K0pIXvatUjS5RkW0a-124" value="Connection" style="" parent="qn_K0pIXvatUjS5RkW0a-0" />
        <object label="Connection" PipingConnector="N" LabelConnector="Y" SignalConnector="N" Direction="225" AuxiliaryConnector="N" id="7BWam4BL9_YMowu0xJh2-1">
          <mxCell style="vsdxID=1407;fillColor=none;gradientColor=none;shape=stencil(rVFbDsIgEDwNnyQU4glqvcfGblsilmZBS28vZGMsxg9j/JvZmX1kR5g2TLCg0CpE8hdcbR8nYY5CaztPSDZmJEwnTDt4wpH8be6ZL1CcBV39vUxI3KdKh1YbswPTEzuBzlmiVGmKau9zUKM+jlJJQrJBko8QrZ+rrQ5oRJnXyMHBWElhRVx25ebnw/5zVvPFWRm83jxY5zilvf4eSy5xpKZ7AA==);strokeColor=#00FF00;strokeWidth=1;points=[[0.5,0.5,0,0,0]];labelBackgroundColor=none;rounded=0;html=1;whiteSpace=wrap;aspect=fixed;noLabel=1;snapToPoint=1;container=0;fontSize=16;fontFamily=Helvetica;" parent="qn_K0pIXvatUjS5RkW0a-124" vertex="1">
            <mxGeometry x="170" y="298" width="12" height="12" as="geometry" />
          </mxCell>
        </object>
        <mxCell id="qn_K0pIXvatUjS5RkW0a-129" value="Label" style="locked=1;" parent="qn_K0pIXvatUjS5RkW0a-0" />
        <object label="%LabelLines%&amp;nbsp; &amp;nbsp; &amp;nbsp; &amp;nbsp; &amp;nbsp; &amp;nbsp;%LabelIndex%" placeholders="1" LabelLines="1" LabelIndex="A" id="7BWam4BL9_YMowu0xJh2-0">
          <mxCell style="rounded=0;whiteSpace=wrap;html=1;fillColor=none;strokeColor=#FF0000;fontColor=#FF0000;fontSize=10;align=left;fontFamily=Helvetica;" parent="qn_K0pIXvatUjS5RkW0a-129" vertex="1">
            <mxGeometry x="272" y="256" width="80" height="16" as="geometry" />
          </mxCell>
        </object>
        <mxCell id="qn_K0pIXvatUjS5RkW0a-130" value="Origo" style="locked=1;" parent="qn_K0pIXvatUjS5RkW0a-0" visible="0" />
        <object label="origo" id="OIDmBnItBntYVEc15gtL-0">
          <mxCell style="vsdxID=1407;fillColor=none;gradientColor=none;shape=stencil(rVFbDsIgEDwNnyQU4glqvcfGblsilmZBS28vZGMsxg9j/JvZmX1kR5g2TLCg0CpE8hdcbR8nYY5CaztPSDZmJEwnTDt4wpH8be6ZL1CcBV39vUxI3KdKh1YbswPTEzuBzlmiVGmKau9zUKM+jlJJQrJBko8QrZ+rrQ5oRJnXyMHBWElhRVx25ebnw/5zVvPFWRm83jxY5zilvf4eSy5xpKZ7AA==);strokeColor=#ff0000;strokeWidth=1;points=[[0.5,0.5,0,0,0]];labelBackgroundColor=none;rounded=0;html=1;whiteSpace=wrap;aspect=fixed;noLabel=1;snapToPoint=1;fontFamily=Helvetica;fontSize=45;" parent="qn_K0pIXvatUjS5RkW0a-130" vertex="1">
            <mxGeometry x="172" y="300" width="7.874" height="7.87" as="geometry" />
          </mxCell>
        </object>
        <object label="Symbol" Width="12" Height="12" UoM="mm" id="qn_K0pIXvatUjS5RkW0a-131">
          <mxCell style="locked=1;" parent="qn_K0pIXvatUjS5RkW0a-0" />
        </object>
        <mxCell id="eUA6f1vSsgfuqLjs1iyG-0" value="" style="whiteSpace=wrap;html=1;aspect=fixed;fillColor=none;" parent="qn_K0pIXvatUjS5RkW0a-131" vertex="1">
          <mxGeometry x="176" y="112" width="192" height="192" as="geometry" />
        </mxCell>
        <mxCell id="NhQiUqbZBDXpP8fwC46J-0" value="" style="endArrow=none;html=1;rounded=0;exitX=0;exitY=1;exitDx=0;exitDy=0;entryX=1;entryY=0;entryDx=0;entryDy=0;" parent="qn_K0pIXvatUjS5RkW0a-131" source="eUA6f1vSsgfuqLjs1iyG-0" target="eUA6f1vSsgfuqLjs1iyG-0" edge="1">
          <mxGeometry width="50" height="50" relative="1" as="geometry">
            <mxPoint x="182" y="298" as="sourcePoint" />
            <mxPoint x="232" y="248" as="targetPoint" />
          </mxGeometry>
        </mxCell>
        <mxCell id="qJ54Huzz3K3UCWwMOSc4-0" value="&lt;font style=&quot;font-size: 45px;&quot;&gt;SI&lt;/font&gt;" style="text;html=1;strokeColor=none;fillColor=none;align=center;verticalAlign=middle;whiteSpace=wrap;rounded=0;" parent="qn_K0pIXvatUjS5RkW0a-131" vertex="1">
          <mxGeometry x="192" y="160" width="64" height="32" as="geometry" />
        </mxCell>
      </root>
    </mxGraphModel>
  </diagram>
</mxfile>
